<mxfile host="Electron" modified="2024-03-31T13:42:46.083Z" agent="Mozilla/5.0 (Windows NT 10.0; Win64; x64) AppleWebKit/537.36 (KHTML, like Gecko) draw.io/24.1.0 Chrome/120.0.6099.109 Electron/28.1.0 Safari/537.36" etag="Ny496vQJDNE7CyurbG4l" version="24.1.0" type="device">
  <diagram id="C5RBs43oDa-KdzZeNtuy" name="Page-1">
    <mxGraphModel dx="3141" dy="1196" grid="1" gridSize="10" guides="1" tooltips="1" connect="1" arrows="1" fold="1" page="1" pageScale="1" pageWidth="827" pageHeight="1169" math="0" shadow="0">
      <root>
        <mxCell id="WIyWlLk6GJQsqaUBKTNV-0" />
        <mxCell id="WIyWlLk6GJQsqaUBKTNV-1" parent="WIyWlLk6GJQsqaUBKTNV-0" />
        <mxCell id="iR38KoTatVXJLjxWmLt4-14" value="" style="swimlane;startSize=0;" parent="WIyWlLk6GJQsqaUBKTNV-1" vertex="1">
          <mxGeometry x="-800" y="70" width="1180" height="280" as="geometry" />
        </mxCell>
        <mxCell id="23h9r7jtXP9eD7p0l-dG-4" value="WebController" style="swimlane;fontStyle=1;align=center;verticalAlign=top;childLayout=stackLayout;horizontal=1;startSize=26;horizontalStack=0;resizeParent=1;resizeParentMax=0;resizeLast=0;collapsible=1;marginBottom=0;whiteSpace=wrap;html=1;" vertex="1" parent="iR38KoTatVXJLjxWmLt4-14">
          <mxGeometry x="37" y="50" width="350" height="150" as="geometry" />
        </mxCell>
        <mxCell id="23h9r7jtXP9eD7p0l-dG-5" value="-loggedInUser: User&lt;div&gt;- searchCriteria: string&lt;/div&gt;" style="text;strokeColor=none;fillColor=none;align=left;verticalAlign=top;spacingLeft=4;spacingRight=4;overflow=hidden;rotatable=0;points=[[0,0.5],[1,0.5]];portConstraint=eastwest;whiteSpace=wrap;html=1;" vertex="1" parent="23h9r7jtXP9eD7p0l-dG-4">
          <mxGeometry y="26" width="350" height="34" as="geometry" />
        </mxCell>
        <mxCell id="23h9r7jtXP9eD7p0l-dG-6" value="" style="line;strokeWidth=1;fillColor=none;align=left;verticalAlign=middle;spacingTop=-1;spacingLeft=3;spacingRight=3;rotatable=0;labelPosition=right;points=[];portConstraint=eastwest;strokeColor=inherit;" vertex="1" parent="23h9r7jtXP9eD7p0l-dG-4">
          <mxGeometry y="60" width="350" height="8" as="geometry" />
        </mxCell>
        <mxCell id="23h9r7jtXP9eD7p0l-dG-7" value="+displayHomePage()&lt;div&gt;+displayMoviePage(movieId)&lt;/div&gt;&lt;div&gt;+loginUser(username: string, password:string)&lt;/div&gt;&lt;div&gt;+logoutUser()&lt;/div&gt;&lt;div&gt;+registerUser(username: string, email: string, password: string)&lt;/div&gt;" style="text;strokeColor=none;fillColor=none;align=left;verticalAlign=top;spacingLeft=4;spacingRight=4;overflow=hidden;rotatable=0;points=[[0,0.5],[1,0.5]];portConstraint=eastwest;whiteSpace=wrap;html=1;" vertex="1" parent="23h9r7jtXP9eD7p0l-dG-4">
          <mxGeometry y="68" width="350" height="82" as="geometry" />
        </mxCell>
        <mxCell id="23h9r7jtXP9eD7p0l-dG-9" value="DesktopController" style="swimlane;fontStyle=1;align=center;verticalAlign=top;childLayout=stackLayout;horizontal=1;startSize=26;horizontalStack=0;resizeParent=1;resizeParentMax=0;resizeLast=0;collapsible=1;marginBottom=0;whiteSpace=wrap;html=1;" vertex="1" parent="iR38KoTatVXJLjxWmLt4-14">
          <mxGeometry x="880" y="50" width="270" height="140" as="geometry" />
        </mxCell>
        <mxCell id="23h9r7jtXP9eD7p0l-dG-10" value="-loggedInUser: User&lt;div&gt;-searchCriteria: string&lt;/div&gt;" style="text;strokeColor=none;fillColor=none;align=left;verticalAlign=top;spacingLeft=4;spacingRight=4;overflow=hidden;rotatable=0;points=[[0,0.5],[1,0.5]];portConstraint=eastwest;whiteSpace=wrap;html=1;" vertex="1" parent="23h9r7jtXP9eD7p0l-dG-9">
          <mxGeometry y="26" width="270" height="34" as="geometry" />
        </mxCell>
        <mxCell id="23h9r7jtXP9eD7p0l-dG-11" value="" style="line;strokeWidth=1;fillColor=none;align=left;verticalAlign=middle;spacingTop=-1;spacingLeft=3;spacingRight=3;rotatable=0;labelPosition=right;points=[];portConstraint=eastwest;strokeColor=inherit;" vertex="1" parent="23h9r7jtXP9eD7p0l-dG-9">
          <mxGeometry y="60" width="270" height="8" as="geometry" />
        </mxCell>
        <mxCell id="23h9r7jtXP9eD7p0l-dG-12" value="+displayHomePage()&lt;div&gt;+displayMoviePage(movieId)&lt;/div&gt;&lt;div&gt;+loginUser(username: string, password: string)&lt;/div&gt;&lt;div&gt;+logoutUser()&lt;/div&gt;" style="text;strokeColor=none;fillColor=none;align=left;verticalAlign=top;spacingLeft=4;spacingRight=4;overflow=hidden;rotatable=0;points=[[0,0.5],[1,0.5]];portConstraint=eastwest;whiteSpace=wrap;html=1;" vertex="1" parent="23h9r7jtXP9eD7p0l-dG-9">
          <mxGeometry y="68" width="270" height="72" as="geometry" />
        </mxCell>
        <mxCell id="23h9r7jtXP9eD7p0l-dG-0" value="&amp;lt;&amp;lt;interface&amp;gt;&amp;gt;&lt;div&gt;User Interface&lt;/div&gt;" style="swimlane;fontStyle=1;align=center;verticalAlign=top;childLayout=stackLayout;horizontal=1;startSize=40;horizontalStack=0;resizeParent=1;resizeParentMax=0;resizeLast=0;collapsible=1;marginBottom=0;whiteSpace=wrap;html=1;" vertex="1" parent="iR38KoTatVXJLjxWmLt4-14">
          <mxGeometry x="460" y="55" width="367" height="140" as="geometry" />
        </mxCell>
        <mxCell id="23h9r7jtXP9eD7p0l-dG-1" value="- loggedInUser: User" style="text;strokeColor=none;fillColor=none;align=left;verticalAlign=top;spacingLeft=4;spacingRight=4;overflow=hidden;rotatable=0;points=[[0,0.5],[1,0.5]];portConstraint=eastwest;whiteSpace=wrap;html=1;" vertex="1" parent="23h9r7jtXP9eD7p0l-dG-0">
          <mxGeometry y="40" width="367" height="20" as="geometry" />
        </mxCell>
        <mxCell id="23h9r7jtXP9eD7p0l-dG-2" value="" style="line;strokeWidth=1;fillColor=none;align=left;verticalAlign=middle;spacingTop=-1;spacingLeft=3;spacingRight=3;rotatable=0;labelPosition=right;points=[];portConstraint=eastwest;strokeColor=inherit;" vertex="1" parent="23h9r7jtXP9eD7p0l-dG-0">
          <mxGeometry y="60" width="367" height="8" as="geometry" />
        </mxCell>
        <mxCell id="23h9r7jtXP9eD7p0l-dG-3" value="+displayHomePage()&lt;div&gt;+displayMoviePage(movieId)&lt;/div&gt;&lt;div&gt;+loginUser(username: string,password: string)&lt;/div&gt;&lt;div&gt;+logoutUser()&lt;/div&gt;" style="text;strokeColor=none;fillColor=none;align=left;verticalAlign=top;spacingLeft=4;spacingRight=4;overflow=hidden;rotatable=0;points=[[0,0.5],[1,0.5]];portConstraint=eastwest;whiteSpace=wrap;html=1;" vertex="1" parent="23h9r7jtXP9eD7p0l-dG-0">
          <mxGeometry y="68" width="367" height="72" as="geometry" />
        </mxCell>
        <mxCell id="nimb80_pBrbYNt26mRaU-14" value="&lt;div&gt;&lt;br&gt;&lt;/div&gt;&lt;div&gt;&lt;br&gt;&lt;/div&gt;" style="endArrow=block;endSize=16;endFill=0;html=1;rounded=0;entryX=0.488;entryY=1.042;entryDx=0;entryDy=0;exitX=0.504;exitY=1.011;exitDx=0;exitDy=0;exitPerimeter=0;entryPerimeter=0;" parent="iR38KoTatVXJLjxWmLt4-14" edge="1" source="23h9r7jtXP9eD7p0l-dG-12">
          <mxGeometry x="-0.0037" y="-5" width="160" relative="1" as="geometry">
            <mxPoint x="1016.0799999999999" y="196.00800000000004" as="sourcePoint" />
            <mxPoint x="750.096" y="195.0039999999999" as="targetPoint" />
            <Array as="points">
              <mxPoint x="1016" y="238.98000000000002" />
              <mxPoint x="750" y="238.98000000000002" />
            </Array>
            <mxPoint as="offset" />
          </mxGeometry>
        </mxCell>
        <mxCell id="23h9r7jtXP9eD7p0l-dG-38" value="&lt;div&gt;&lt;br&gt;&lt;/div&gt;&lt;div&gt;&lt;br&gt;&lt;/div&gt;" style="endArrow=block;endSize=16;endFill=0;html=1;rounded=0;entryX=0.132;entryY=1.03;entryDx=0;entryDy=0;entryPerimeter=0;" edge="1" parent="iR38KoTatVXJLjxWmLt4-14">
          <mxGeometry x="-0.0037" y="-5" width="160" relative="1" as="geometry">
            <mxPoint x="280" y="200" as="sourcePoint" />
            <mxPoint x="508.44399999999996" y="195.00000000000003" as="targetPoint" />
            <Array as="points">
              <mxPoint x="280" y="247.84" />
              <mxPoint x="508" y="247.84" />
            </Array>
            <mxPoint as="offset" />
          </mxGeometry>
        </mxCell>
        <mxCell id="iR38KoTatVXJLjxWmLt4-16" value="" style="swimlane;startSize=0;" parent="WIyWlLk6GJQsqaUBKTNV-1" vertex="1">
          <mxGeometry x="-800" y="390" width="1610" height="760" as="geometry" />
        </mxCell>
        <mxCell id="qx7hN7F4rczpkf0NwDpL-27" value="Manager Classes" style="shape=umlFrame;whiteSpace=wrap;html=1;pointerEvents=0;" parent="iR38KoTatVXJLjxWmLt4-16" vertex="1">
          <mxGeometry x="839" y="40" width="750" height="680" as="geometry" />
        </mxCell>
        <mxCell id="23h9r7jtXP9eD7p0l-dG-18" value="GeneralManager" style="swimlane;fontStyle=1;align=center;verticalAlign=top;childLayout=stackLayout;horizontal=1;startSize=26;horizontalStack=0;resizeParent=1;resizeParentMax=0;resizeLast=0;collapsible=1;marginBottom=0;whiteSpace=wrap;html=1;" vertex="1" parent="iR38KoTatVXJLjxWmLt4-16">
          <mxGeometry x="859" y="100" width="230" height="210" as="geometry" />
        </mxCell>
        <mxCell id="23h9r7jtXP9eD7p0l-dG-19" value="-currentUser: User&lt;div&gt;-searchResults: List&amp;lt;Movie&amp;gt;&lt;/div&gt;" style="text;strokeColor=none;fillColor=none;align=left;verticalAlign=top;spacingLeft=4;spacingRight=4;overflow=hidden;rotatable=0;points=[[0,0.5],[1,0.5]];portConstraint=eastwest;whiteSpace=wrap;html=1;" vertex="1" parent="23h9r7jtXP9eD7p0l-dG-18">
          <mxGeometry y="26" width="230" height="34" as="geometry" />
        </mxCell>
        <mxCell id="23h9r7jtXP9eD7p0l-dG-20" value="" style="line;strokeWidth=1;fillColor=none;align=left;verticalAlign=middle;spacingTop=-1;spacingLeft=3;spacingRight=3;rotatable=0;labelPosition=right;points=[];portConstraint=eastwest;strokeColor=inherit;" vertex="1" parent="23h9r7jtXP9eD7p0l-dG-18">
          <mxGeometry y="60" width="230" height="8" as="geometry" />
        </mxCell>
        <mxCell id="23h9r7jtXP9eD7p0l-dG-21" value="+fetchUserDatas(userId: int)&lt;div&gt;+fetchMovieData(movieId: int)&lt;/div&gt;&lt;div&gt;+fetchReviewData(userId: int)&lt;/div&gt;&lt;div&gt;+fetchInterpretationData(userId: int)&lt;/div&gt;&lt;div&gt;+searchMovies(criteria: string)&lt;/div&gt;&lt;div&gt;+executeQuery(query:string)&lt;/div&gt;&lt;div&gt;+fetchResults(query:string)&lt;/div&gt;&lt;div&gt;+executeAnalysis(query: string)&lt;/div&gt;&lt;div&gt;+generateRecommendations(user: User)&lt;/div&gt;" style="text;strokeColor=none;fillColor=none;align=left;verticalAlign=top;spacingLeft=4;spacingRight=4;overflow=hidden;rotatable=0;points=[[0,0.5],[1,0.5]];portConstraint=eastwest;whiteSpace=wrap;html=1;" vertex="1" parent="23h9r7jtXP9eD7p0l-dG-18">
          <mxGeometry y="68" width="230" height="142" as="geometry" />
        </mxCell>
        <mxCell id="23h9r7jtXP9eD7p0l-dG-22" value="UserManager" style="swimlane;fontStyle=1;align=center;verticalAlign=top;childLayout=stackLayout;horizontal=1;startSize=26;horizontalStack=0;resizeParent=1;resizeParentMax=0;resizeLast=0;collapsible=1;marginBottom=0;whiteSpace=wrap;html=1;" vertex="1" parent="iR38KoTatVXJLjxWmLt4-16">
          <mxGeometry x="859" y="490" width="230" height="200" as="geometry" />
        </mxCell>
        <mxCell id="23h9r7jtXP9eD7p0l-dG-23" value="-username: string&lt;div&gt;-email:string&lt;/div&gt;&lt;div&gt;-password: string&lt;/div&gt;" style="text;strokeColor=none;fillColor=none;align=left;verticalAlign=top;spacingLeft=4;spacingRight=4;overflow=hidden;rotatable=0;points=[[0,0.5],[1,0.5]];portConstraint=eastwest;whiteSpace=wrap;html=1;" vertex="1" parent="23h9r7jtXP9eD7p0l-dG-22">
          <mxGeometry y="26" width="230" height="54" as="geometry" />
        </mxCell>
        <mxCell id="23h9r7jtXP9eD7p0l-dG-24" value="" style="line;strokeWidth=1;fillColor=none;align=left;verticalAlign=middle;spacingTop=-1;spacingLeft=3;spacingRight=3;rotatable=0;labelPosition=right;points=[];portConstraint=eastwest;strokeColor=inherit;" vertex="1" parent="23h9r7jtXP9eD7p0l-dG-22">
          <mxGeometry y="80" width="230" height="8" as="geometry" />
        </mxCell>
        <mxCell id="23h9r7jtXP9eD7p0l-dG-25" value="+setUsername(username:string)&lt;div&gt;+setEmail(email:string)&lt;/div&gt;&lt;div&gt;+setPassword(password:string)&lt;/div&gt;&lt;div&gt;+getUsername(): string&lt;/div&gt;&lt;div&gt;+getEmail(): string&lt;/div&gt;&lt;div&gt;+getPassword(): string&lt;/div&gt;&lt;div&gt;hashAndSaltPassword(password:string)&lt;/div&gt;" style="text;strokeColor=none;fillColor=none;align=left;verticalAlign=top;spacingLeft=4;spacingRight=4;overflow=hidden;rotatable=0;points=[[0,0.5],[1,0.5]];portConstraint=eastwest;whiteSpace=wrap;html=1;" vertex="1" parent="23h9r7jtXP9eD7p0l-dG-22">
          <mxGeometry y="88" width="230" height="112" as="geometry" />
        </mxCell>
        <mxCell id="23h9r7jtXP9eD7p0l-dG-26" value="ReviewManager" style="swimlane;fontStyle=1;align=center;verticalAlign=top;childLayout=stackLayout;horizontal=1;startSize=26;horizontalStack=0;resizeParent=1;resizeParentMax=0;resizeLast=0;collapsible=1;marginBottom=0;whiteSpace=wrap;html=1;" vertex="1" parent="iR38KoTatVXJLjxWmLt4-16">
          <mxGeometry x="1349" y="100" width="220" height="180" as="geometry" />
        </mxCell>
        <mxCell id="23h9r7jtXP9eD7p0l-dG-27" value="-reviewDetails: Review&lt;div&gt;-reviewId: int&lt;/div&gt;&lt;div&gt;-movieId: int&lt;/div&gt;" style="text;strokeColor=none;fillColor=none;align=left;verticalAlign=top;spacingLeft=4;spacingRight=4;overflow=hidden;rotatable=0;points=[[0,0.5],[1,0.5]];portConstraint=eastwest;whiteSpace=wrap;html=1;" vertex="1" parent="23h9r7jtXP9eD7p0l-dG-26">
          <mxGeometry y="26" width="220" height="54" as="geometry" />
        </mxCell>
        <mxCell id="23h9r7jtXP9eD7p0l-dG-28" value="" style="line;strokeWidth=1;fillColor=none;align=left;verticalAlign=middle;spacingTop=-1;spacingLeft=3;spacingRight=3;rotatable=0;labelPosition=right;points=[];portConstraint=eastwest;strokeColor=inherit;" vertex="1" parent="23h9r7jtXP9eD7p0l-dG-26">
          <mxGeometry y="80" width="220" height="8" as="geometry" />
        </mxCell>
        <mxCell id="23h9r7jtXP9eD7p0l-dG-29" value="+createReview(reviewDetails:Review)&lt;div&gt;+updateReview(reviewId: int, reviewDetails: Review)&lt;/div&gt;&lt;div&gt;+deleteReview(reviewId: int)&lt;/div&gt;&lt;div&gt;+getMovieReviews(movieId: int)&lt;/div&gt;" style="text;strokeColor=none;fillColor=none;align=left;verticalAlign=top;spacingLeft=4;spacingRight=4;overflow=hidden;rotatable=0;points=[[0,0.5],[1,0.5]];portConstraint=eastwest;whiteSpace=wrap;html=1;" vertex="1" parent="23h9r7jtXP9eD7p0l-dG-26">
          <mxGeometry y="88" width="220" height="92" as="geometry" />
        </mxCell>
        <mxCell id="23h9r7jtXP9eD7p0l-dG-30" value="InterpretationManager" style="swimlane;fontStyle=1;align=center;verticalAlign=top;childLayout=stackLayout;horizontal=1;startSize=26;horizontalStack=0;resizeParent=1;resizeParentMax=0;resizeLast=0;collapsible=1;marginBottom=0;whiteSpace=wrap;html=1;" vertex="1" parent="iR38KoTatVXJLjxWmLt4-16">
          <mxGeometry x="1139" y="530" width="430" height="120" as="geometry" />
        </mxCell>
        <mxCell id="23h9r7jtXP9eD7p0l-dG-31" value="-interpretationDetails: interpretation&lt;div&gt;-interpretationId: int&lt;/div&gt;" style="text;strokeColor=none;fillColor=none;align=left;verticalAlign=top;spacingLeft=4;spacingRight=4;overflow=hidden;rotatable=0;points=[[0,0.5],[1,0.5]];portConstraint=eastwest;whiteSpace=wrap;html=1;" vertex="1" parent="23h9r7jtXP9eD7p0l-dG-30">
          <mxGeometry y="26" width="430" height="34" as="geometry" />
        </mxCell>
        <mxCell id="23h9r7jtXP9eD7p0l-dG-32" value="" style="line;strokeWidth=1;fillColor=none;align=left;verticalAlign=middle;spacingTop=-1;spacingLeft=3;spacingRight=3;rotatable=0;labelPosition=right;points=[];portConstraint=eastwest;strokeColor=inherit;" vertex="1" parent="23h9r7jtXP9eD7p0l-dG-30">
          <mxGeometry y="60" width="430" height="8" as="geometry" />
        </mxCell>
        <mxCell id="23h9r7jtXP9eD7p0l-dG-33" value="+createInterpretation(interpretationDetails: interpretation)&lt;div&gt;+updateInterpretation(jnterpretationId: int, interpretationDetails: interpretation)&lt;/div&gt;&lt;div&gt;+deleteInterpretation(interpretationId: int)&lt;/div&gt;" style="text;strokeColor=none;fillColor=none;align=left;verticalAlign=top;spacingLeft=4;spacingRight=4;overflow=hidden;rotatable=0;points=[[0,0.5],[1,0.5]];portConstraint=eastwest;whiteSpace=wrap;html=1;" vertex="1" parent="23h9r7jtXP9eD7p0l-dG-30">
          <mxGeometry y="68" width="430" height="52" as="geometry" />
        </mxCell>
        <mxCell id="23h9r7jtXP9eD7p0l-dG-34" value="MovieManager" style="swimlane;fontStyle=1;align=center;verticalAlign=top;childLayout=stackLayout;horizontal=1;startSize=26;horizontalStack=0;resizeParent=1;resizeParentMax=0;resizeLast=0;collapsible=1;marginBottom=0;whiteSpace=wrap;html=1;" vertex="1" parent="iR38KoTatVXJLjxWmLt4-16">
          <mxGeometry x="1349" y="320" width="220" height="160" as="geometry" />
        </mxCell>
        <mxCell id="23h9r7jtXP9eD7p0l-dG-35" value="-movieDetails: Movie&lt;div&gt;-movieId: int&lt;/div&gt;" style="text;strokeColor=none;fillColor=none;align=left;verticalAlign=top;spacingLeft=4;spacingRight=4;overflow=hidden;rotatable=0;points=[[0,0.5],[1,0.5]];portConstraint=eastwest;whiteSpace=wrap;html=1;" vertex="1" parent="23h9r7jtXP9eD7p0l-dG-34">
          <mxGeometry y="26" width="220" height="34" as="geometry" />
        </mxCell>
        <mxCell id="23h9r7jtXP9eD7p0l-dG-36" value="" style="line;strokeWidth=1;fillColor=none;align=left;verticalAlign=middle;spacingTop=-1;spacingLeft=3;spacingRight=3;rotatable=0;labelPosition=right;points=[];portConstraint=eastwest;strokeColor=inherit;" vertex="1" parent="23h9r7jtXP9eD7p0l-dG-34">
          <mxGeometry y="60" width="220" height="8" as="geometry" />
        </mxCell>
        <mxCell id="23h9r7jtXP9eD7p0l-dG-37" value="+createMovie(movieDetails: Movie)&lt;div&gt;+updateMovie(movieId: int, movieDetails: Movie)&lt;/div&gt;&lt;div&gt;+deleteMovie(movieId:int)&lt;/div&gt;" style="text;strokeColor=none;fillColor=none;align=left;verticalAlign=top;spacingLeft=4;spacingRight=4;overflow=hidden;rotatable=0;points=[[0,0.5],[1,0.5]];portConstraint=eastwest;whiteSpace=wrap;html=1;" vertex="1" parent="23h9r7jtXP9eD7p0l-dG-34">
          <mxGeometry y="68" width="220" height="92" as="geometry" />
        </mxCell>
        <mxCell id="qx7hN7F4rczpkf0NwDpL-35" value="Entities" style="shape=umlFrame;whiteSpace=wrap;html=1;pointerEvents=0;" parent="iR38KoTatVXJLjxWmLt4-16" vertex="1">
          <mxGeometry x="50" y="270" width="620" height="465" as="geometry" />
        </mxCell>
        <mxCell id="qx7hN7F4rczpkf0NwDpL-4" value="User" style="swimlane;fontStyle=0;childLayout=stackLayout;horizontal=1;startSize=26;fillColor=none;horizontalStack=0;resizeParent=1;resizeParentMax=0;resizeLast=0;collapsible=1;marginBottom=0;whiteSpace=wrap;html=1;" parent="iR38KoTatVXJLjxWmLt4-16" vertex="1">
          <mxGeometry x="260" y="552.5" width="200" height="120" as="geometry" />
        </mxCell>
        <mxCell id="qx7hN7F4rczpkf0NwDpL-5" value="&lt;div&gt;&lt;span style=&quot;background-color: initial;&quot;&gt;&amp;nbsp; &amp;nbsp; - username: string&lt;/span&gt;&lt;br&gt;&lt;/div&gt;&lt;div&gt;&amp;nbsp; &amp;nbsp; - password: string&lt;/div&gt;&lt;div&gt;&amp;nbsp; &amp;nbsp; - userDetails: UserDetails&lt;/div&gt;&lt;div&gt;&amp;nbsp; &amp;nbsp; + getUsername(): string&lt;/div&gt;&lt;div&gt;&amp;nbsp; &amp;nbsp; + getPassword(): string&lt;/div&gt;&lt;div&gt;&amp;nbsp; &amp;nbsp; + getUserDetails(): UserDetails&lt;/div&gt;" style="text;strokeColor=none;fillColor=none;align=left;verticalAlign=top;spacingLeft=4;spacingRight=4;overflow=hidden;rotatable=0;points=[[0,0.5],[1,0.5]];portConstraint=eastwest;whiteSpace=wrap;html=1;" parent="qx7hN7F4rczpkf0NwDpL-4" vertex="1">
          <mxGeometry y="26" width="200" height="94" as="geometry" />
        </mxCell>
        <mxCell id="qx7hN7F4rczpkf0NwDpL-8" value="Movie" style="swimlane;fontStyle=0;childLayout=stackLayout;horizontal=1;startSize=26;fillColor=none;horizontalStack=0;resizeParent=1;resizeParentMax=0;resizeLast=0;collapsible=1;marginBottom=0;whiteSpace=wrap;html=1;" parent="iR38KoTatVXJLjxWmLt4-16" vertex="1">
          <mxGeometry x="470" y="512.5" width="160" height="180" as="geometry" />
        </mxCell>
        <mxCell id="qx7hN7F4rczpkf0NwDpL-9" value="&lt;div&gt;&lt;span style=&quot;background-color: initial;&quot;&gt;&amp;nbsp; &amp;nbsp; - title: string&lt;/span&gt;&lt;br&gt;&lt;/div&gt;&lt;div&gt;&amp;nbsp; &amp;nbsp; - description: string&lt;/div&gt;&lt;div&gt;&amp;nbsp; &amp;nbsp; - genre: string&lt;/div&gt;&lt;div&gt;&amp;nbsp; &amp;nbsp; - releaseYear: int&lt;/div&gt;&lt;div&gt;&amp;nbsp; &amp;nbsp; - director: string&lt;/div&gt;&lt;div&gt;&amp;nbsp; &amp;nbsp; + getTitle(): string&lt;/div&gt;&lt;div&gt;&amp;nbsp; &amp;nbsp; + getDescription(): string&lt;/div&gt;&lt;div&gt;&amp;nbsp; &amp;nbsp; + getGenre(): string&lt;/div&gt;&lt;div&gt;&amp;nbsp; &amp;nbsp; + getReleaseYear(): int&lt;/div&gt;&lt;div&gt;&amp;nbsp; &amp;nbsp; + getDirector(): string&lt;/div&gt;" style="text;strokeColor=none;fillColor=none;align=left;verticalAlign=top;spacingLeft=4;spacingRight=4;overflow=hidden;rotatable=0;points=[[0,0.5],[1,0.5]];portConstraint=eastwest;whiteSpace=wrap;html=1;" parent="qx7hN7F4rczpkf0NwDpL-8" vertex="1">
          <mxGeometry y="26" width="160" height="154" as="geometry" />
        </mxCell>
        <mxCell id="qx7hN7F4rczpkf0NwDpL-12" value="Review" style="swimlane;fontStyle=0;childLayout=stackLayout;horizontal=1;startSize=26;fillColor=none;horizontalStack=0;resizeParent=1;resizeParentMax=0;resizeLast=0;collapsible=1;marginBottom=0;whiteSpace=wrap;html=1;" parent="iR38KoTatVXJLjxWmLt4-16" vertex="1">
          <mxGeometry x="260" y="382.5" width="170" height="60" as="geometry" />
        </mxCell>
        <mxCell id="qx7hN7F4rczpkf0NwDpL-13" value="&lt;div&gt;&lt;span style=&quot;background-color: initial;&quot;&gt;&amp;nbsp;- reviewText: string&lt;/span&gt;&lt;br&gt;&lt;/div&gt;&lt;div&gt;&amp;nbsp;+ getReviewText(): string&lt;/div&gt;" style="text;strokeColor=none;fillColor=none;align=left;verticalAlign=top;spacingLeft=4;spacingRight=4;overflow=hidden;rotatable=0;points=[[0,0.5],[1,0.5]];portConstraint=eastwest;whiteSpace=wrap;html=1;" parent="qx7hN7F4rczpkf0NwDpL-12" vertex="1">
          <mxGeometry y="26" width="170" height="34" as="geometry" />
        </mxCell>
        <mxCell id="qx7hN7F4rczpkf0NwDpL-16" value="Interpretation" style="swimlane;fontStyle=0;childLayout=stackLayout;horizontal=1;startSize=26;fillColor=none;horizontalStack=0;resizeParent=1;resizeParentMax=0;resizeLast=0;collapsible=1;marginBottom=0;whiteSpace=wrap;html=1;" parent="iR38KoTatVXJLjxWmLt4-16" vertex="1">
          <mxGeometry x="440" y="312.5" width="190" height="60" as="geometry" />
        </mxCell>
        <mxCell id="qx7hN7F4rczpkf0NwDpL-17" value="&lt;div&gt;&lt;span style=&quot;background-color: initial;&quot;&gt;&amp;nbsp; &amp;nbsp; - interpretationText: string&lt;/span&gt;&lt;/div&gt;&lt;div&gt;&amp;nbsp; &amp;nbsp; + getInterpretationText(): string&lt;/div&gt;" style="text;strokeColor=none;fillColor=none;align=left;verticalAlign=top;spacingLeft=4;spacingRight=4;overflow=hidden;rotatable=0;points=[[0,0.5],[1,0.5]];portConstraint=eastwest;whiteSpace=wrap;html=1;" parent="qx7hN7F4rczpkf0NwDpL-16" vertex="1">
          <mxGeometry y="26" width="190" height="34" as="geometry" />
        </mxCell>
        <mxCell id="nimb80_pBrbYNt26mRaU-0" value="Entity" style="swimlane;fontStyle=0;childLayout=stackLayout;horizontal=1;startSize=26;fillColor=none;horizontalStack=0;resizeParent=1;resizeParentMax=0;resizeLast=0;collapsible=1;marginBottom=0;whiteSpace=wrap;html=1;" parent="iR38KoTatVXJLjxWmLt4-16" vertex="1">
          <mxGeometry x="60" y="462.5" width="140" height="80" as="geometry" />
        </mxCell>
        <mxCell id="nimb80_pBrbYNt26mRaU-1" value="&lt;div&gt;- id: int&lt;/div&gt;+GenerateId():void&lt;div&gt;+GetId():void&lt;/div&gt;" style="text;strokeColor=none;fillColor=none;align=left;verticalAlign=top;spacingLeft=4;spacingRight=4;overflow=hidden;rotatable=0;points=[[0,0.5],[1,0.5]];portConstraint=eastwest;whiteSpace=wrap;html=1;" parent="nimb80_pBrbYNt26mRaU-0" vertex="1">
          <mxGeometry y="26" width="140" height="54" as="geometry" />
        </mxCell>
        <mxCell id="nimb80_pBrbYNt26mRaU-4" value="&lt;div&gt;&lt;br&gt;&lt;/div&gt;&lt;div&gt;&lt;br&gt;&lt;/div&gt;" style="endArrow=block;endSize=16;endFill=0;html=1;rounded=0;entryX=0.989;entryY=1.021;entryDx=0;entryDy=0;entryPerimeter=0;" parent="iR38KoTatVXJLjxWmLt4-16" target="nimb80_pBrbYNt26mRaU-1" edge="1">
          <mxGeometry width="160" relative="1" as="geometry">
            <mxPoint x="260" y="592.5" as="sourcePoint" />
            <mxPoint x="238.24000000000024" y="635.8899999999999" as="targetPoint" />
            <Array as="points">
              <mxPoint x="198" y="592.5" />
            </Array>
          </mxGeometry>
        </mxCell>
        <mxCell id="nimb80_pBrbYNt26mRaU-5" value="&lt;div&gt;&lt;br&gt;&lt;/div&gt;&lt;div&gt;&lt;br&gt;&lt;/div&gt;" style="endArrow=block;endSize=16;endFill=0;html=1;rounded=0;entryX=1;entryY=0;entryDx=0;entryDy=0;" parent="iR38KoTatVXJLjxWmLt4-16" target="nimb80_pBrbYNt26mRaU-0" edge="1">
          <mxGeometry width="160" relative="1" as="geometry">
            <mxPoint x="260" y="402.5" as="sourcePoint" />
            <mxPoint x="160" y="362.5" as="targetPoint" />
            <Array as="points">
              <mxPoint x="200" y="402.5" />
            </Array>
          </mxGeometry>
        </mxCell>
        <mxCell id="nimb80_pBrbYNt26mRaU-6" value="&lt;div&gt;&lt;br&gt;&lt;/div&gt;&lt;div&gt;&lt;br&gt;&lt;/div&gt;" style="endArrow=block;endSize=16;endFill=0;html=1;rounded=0;entryX=0.728;entryY=0.002;entryDx=0;entryDy=0;entryPerimeter=0;" parent="iR38KoTatVXJLjxWmLt4-16" target="nimb80_pBrbYNt26mRaU-0" edge="1">
          <mxGeometry width="160" relative="1" as="geometry">
            <mxPoint x="440" y="342.5" as="sourcePoint" />
            <mxPoint x="382" y="362.5" as="targetPoint" />
            <Array as="points">
              <mxPoint x="162" y="342.5" />
            </Array>
          </mxGeometry>
        </mxCell>
        <mxCell id="nimb80_pBrbYNt26mRaU-8" value="&lt;div&gt;&lt;br&gt;&lt;/div&gt;&lt;div&gt;&lt;br&gt;&lt;/div&gt;" style="endArrow=block;endSize=16;endFill=0;html=1;rounded=0;exitX=-0.005;exitY=1.001;exitDx=0;exitDy=0;exitPerimeter=0;entryX=0.631;entryY=1.071;entryDx=0;entryDy=0;entryPerimeter=0;" parent="iR38KoTatVXJLjxWmLt4-16" source="qx7hN7F4rczpkf0NwDpL-9" target="nimb80_pBrbYNt26mRaU-1" edge="1">
          <mxGeometry width="160" relative="1" as="geometry">
            <mxPoint x="228" y="672.5" as="sourcePoint" />
            <mxPoint x="170" y="732.5" as="targetPoint" />
            <Array as="points">
              <mxPoint x="150" y="692.5" />
            </Array>
          </mxGeometry>
        </mxCell>
        <mxCell id="23h9r7jtXP9eD7p0l-dG-13" value="BackendService" style="swimlane;fontStyle=1;align=center;verticalAlign=top;childLayout=stackLayout;horizontal=1;startSize=26;horizontalStack=0;resizeParent=1;resizeParentMax=0;resizeLast=0;collapsible=1;marginBottom=0;whiteSpace=wrap;html=1;" vertex="1" parent="iR38KoTatVXJLjxWmLt4-16">
          <mxGeometry x="202" y="60" width="370" height="140" as="geometry" />
        </mxCell>
        <mxCell id="23h9r7jtXP9eD7p0l-dG-14" value="-userManager: UserManager&lt;div&gt;-reviewManager: ReviewManager&lt;/div&gt;&lt;div&gt;- interpretationManager: InterpretationManager&lt;/div&gt;&lt;div&gt;- movieManager: MovieManager&lt;/div&gt;&lt;div&gt;-databaseOperations: DatabaseOperations&lt;/div&gt;" style="text;strokeColor=none;fillColor=none;align=left;verticalAlign=top;spacingLeft=4;spacingRight=4;overflow=hidden;rotatable=0;points=[[0,0.5],[1,0.5]];portConstraint=eastwest;whiteSpace=wrap;html=1;" vertex="1" parent="23h9r7jtXP9eD7p0l-dG-13">
          <mxGeometry y="26" width="370" height="84" as="geometry" />
        </mxCell>
        <mxCell id="23h9r7jtXP9eD7p0l-dG-15" value="" style="line;strokeWidth=1;fillColor=none;align=left;verticalAlign=middle;spacingTop=-1;spacingLeft=3;spacingRight=3;rotatable=0;labelPosition=right;points=[];portConstraint=eastwest;strokeColor=inherit;" vertex="1" parent="23h9r7jtXP9eD7p0l-dG-13">
          <mxGeometry y="110" width="370" height="8" as="geometry" />
        </mxCell>
        <mxCell id="23h9r7jtXP9eD7p0l-dG-16" value="+performDatabaseOperation(operation)" style="text;strokeColor=none;fillColor=none;align=left;verticalAlign=top;spacingLeft=4;spacingRight=4;overflow=hidden;rotatable=0;points=[[0,0.5],[1,0.5]];portConstraint=eastwest;whiteSpace=wrap;html=1;" vertex="1" parent="23h9r7jtXP9eD7p0l-dG-13">
          <mxGeometry y="118" width="370" height="22" as="geometry" />
        </mxCell>
        <mxCell id="iR38KoTatVXJLjxWmLt4-46" value="" style="swimlane;startSize=0;" parent="WIyWlLk6GJQsqaUBKTNV-1" vertex="1">
          <mxGeometry x="400" y="70" width="302.25" height="150" as="geometry" />
        </mxCell>
        <mxCell id="iR38KoTatVXJLjxWmLt4-52" value="&lt;font style=&quot;font-size: 24px;&quot;&gt;Logic Layer&lt;/font&gt;" style="text;html=1;align=center;verticalAlign=middle;whiteSpace=wrap;rounded=0;" parent="WIyWlLk6GJQsqaUBKTNV-1" vertex="1">
          <mxGeometry x="-680.0000000000001" y="360" width="191" height="30" as="geometry" />
        </mxCell>
        <mxCell id="iR38KoTatVXJLjxWmLt4-15" value="&lt;font style=&quot;font-size: 24px;&quot;&gt;Presentation Layer&lt;/font&gt;" style="text;html=1;align=center;verticalAlign=middle;whiteSpace=wrap;rounded=0;" parent="WIyWlLk6GJQsqaUBKTNV-1" vertex="1">
          <mxGeometry x="-325" y="30" width="230" height="30" as="geometry" />
        </mxCell>
        <mxCell id="iR38KoTatVXJLjxWmLt4-51" value="&lt;font style=&quot;font-size: 24px;&quot;&gt;Data Access Layer&lt;/font&gt;" style="text;html=1;align=center;verticalAlign=middle;whiteSpace=wrap;rounded=0;" parent="WIyWlLk6GJQsqaUBKTNV-1" vertex="1">
          <mxGeometry x="433.88" y="30" width="234.5" height="30" as="geometry" />
        </mxCell>
      </root>
    </mxGraphModel>
  </diagram>
</mxfile>
